<?xml version="1.0" encoding="UTF-8"?><svg id="Layer_2" xmlns="http://www.w3.org/2000/svg" viewBox="0 0 28.28 31.11"><g id="Layer_1-2"><path d="M28.24,25.02c-.06-.26-.56-.68-1.5-1.25-.25-.18-.61-.42-1.08-.73-.47-.31-.89-.59-1.27-.85-.38-.26-.74-.51-1.07-.75-.05-.05-.22-.18-.49-.41-.28-.23-.51-.4-.71-.52-.19-.12-.39-.18-.59-.2-.28-.02-.65,.14-1.1,.51-.46,.36-.88,.77-1.27,1.21-.39,.44-.8,.84-1.23,1.21-.43,.37-.77,.54-1.02,.52-.13-.01-.28-.06-.47-.15-.18-.09-.32-.16-.42-.22-.09-.06-.25-.17-.48-.34-.23-.17-.35-.26-.38-.28-1.83-1.23-3.37-2.6-4.63-4.09-1.26-1.5-2.33-3.25-3.23-5.27-.01-.03-.08-.17-.21-.42-.13-.25-.21-.43-.25-.53-.04-.1-.09-.25-.14-.45-.05-.2-.07-.36-.06-.48,.02-.25,.25-.56,.69-.92,.43-.36,.9-.69,1.4-1,.5-.31,.97-.66,1.41-1.04,.44-.39,.67-.72,.69-1,.02-.2-.01-.4-.1-.61-.08-.21-.21-.47-.39-.79-.18-.31-.28-.5-.32-.56-.18-.37-.36-.76-.55-1.18-.19-.42-.4-.89-.62-1.4-.22-.51-.4-.91-.53-1.19-.41-1.02-.73-1.59-.98-1.7-.09-.05-.24-.08-.44-.1-.38-.03-.88,0-1.5,.08-.62,.09-1.12,.19-1.48,.32-.73,.23-1.55,1.03-2.46,2.38C.62,4.04,.14,5.32,.03,6.61,0,6.99,0,7.36,0,7.72c.02,.36,.07,.77,.16,1.23,.09,.46,.16,.8,.22,1.03,.06,.22,.17,.63,.33,1.21,.16,.58,.26,.93,.29,1.07,.37,1.42,.85,2.7,1.43,3.84,.95,1.89,2.3,3.88,4.05,5.96,1.75,2.08,3.47,3.76,5.18,5.02,1.02,.77,2.2,1.46,3.53,2.07,.12,.05,.46,.21,1,.47,.54,.26,.92,.44,1.13,.53,.21,.1,.54,.23,.97,.39,.44,.17,.83,.29,1.19,.37,.35,.08,.72,.14,1.1,.17,1.29,.11,2.63-.13,4.01-.73,1.49-.66,2.41-1.33,2.76-2.01,.19-.34,.37-.81,.57-1.4,.19-.6,.31-1.09,.34-1.47,.02-.2,0-.35-.03-.45h0Z"/></g></svg>