<?xml version="1.0" encoding="UTF-8"?><svg id="Layer_2" xmlns="http://www.w3.org/2000/svg" viewBox="0 0 18.69 36.01"><defs><style>.cls-1{fill:#f18a21;}</style></defs><g id="Layer_1-2"><path class="cls-1" d="M3.99,36.01H12.01v-15.97h5.96c.24-2.69,.48-5.33,.72-8.05h-6.26c-.06-.11-.1-.16-.1-.21-.01-.94-.03-1.87-.02-2.81,.01-1.54,.62-2.12,2.18-2.13,1.34,0,2.68,0,4.06,0V.05C15.96,.05,13.42-.08,10.91,.08c-3.39,.22-5.86,2.41-6.64,5.71-.21,.9-.28,1.85-.33,2.78-.05,1.12-.01,2.24-.01,3.46H0v8.06H3.99v15.92Z"/></g></svg>