<?xml version="1.0" encoding="UTF-8"?><svg id="Layer_2" xmlns="http://www.w3.org/2000/svg" viewBox="0 0 30.43 30.66"><defs><style>.cls-1{fill:#f18a21;}</style></defs><g id="Layer_1-2"><g><path class="cls-1" d="M0,23.98c0,3.84,2.78,6.66,6.63,6.67,5.73,.02,11.45,.02,17.18,0,3.81-.01,6.61-2.82,6.61-6.62,.01-5.8,0-11.59,0-17.39,0-3.81-2.78-6.61-6.6-6.63-5.75-.02-11.5-.02-17.25,0C2.76,.03,0,2.85,0,6.66c0,2.87,0,5.75,0,8.62C0,18.18,0,21.08,0,23.98ZM2.62,6.58c0-2.28,1.6-3.93,3.9-3.94,5.79-.02,11.59-.02,17.38,0,2.29,0,3.89,1.66,3.9,3.95,0,2.92,0,5.84,0,8.76,0,2.9,0,5.79,0,8.69,0,2.32-1.62,3.98-3.94,3.98-5.77,.01-11.54,.01-17.31,0-2.32,0-3.93-1.66-3.93-3.99,0-5.82,0-11.63,0-17.45Z"/><path class="cls-1" d="M15.21,23.28c4.4,0,7.93-3.57,7.93-7.98,0-4.4-3.57-7.94-7.97-7.92-4.36,.01-7.89,3.56-7.9,7.93,0,4.4,3.56,7.98,7.94,7.97Zm-.01-13.27c2.95,0,5.36,2.39,5.35,5.33,0,2.93-2.43,5.34-5.37,5.32-2.9-.01-5.3-2.4-5.32-5.31-.02-2.92,2.39-5.34,5.34-5.35Z"/><path class="cls-1" d="M23.73,8.82c1.03,0,1.84-.78,1.85-1.82,.01-1.02-.78-1.86-1.8-1.88-1.03-.03-1.9,.83-1.9,1.86,0,1.01,.83,1.83,1.85,1.84Z"/></g></g></svg>