<?xml version="1.0" encoding="UTF-8"?><svg id="Layer_2" xmlns="http://www.w3.org/2000/svg" viewBox="0 0 31.2 31.16"><defs><style>.cls-1{fill:#f18a21;}</style></defs><g id="Layer_1-2"><g><path class="cls-1" d="M3.65,7.26C1.63,7.27,.02,5.7,0,3.69-.02,1.65,1.61,0,3.64,0c1.99,0,3.62,1.64,3.62,3.63,0,2-1.6,3.62-3.61,3.63Z"/><path class="cls-1" d="M7.19,10.46V31.15H.05V10.46H7.19Z"/><path class="cls-1" d="M26.08,10.69c2.51,.45,4.06,2.02,4.62,4.47,.29,1.28,.45,2.61,.47,3.92,.06,3.83,.02,7.65,.02,11.48,0,.19-.04,.37-.06,.59h-6.17v-.88c0-3.17,.04-6.33-.02-9.5-.02-1.03-.16-2.09-.45-3.08-.43-1.46-1.51-2.14-3.05-2.17-1.64-.04-2.92,.61-3.39,1.98-.34,.99-.51,2.09-.53,3.14-.07,3.16-.02,6.33-.02,9.5v.97h-6V10.44h5.7v2.75c2.47-3.04,5.61-3.09,8.89-2.51Z"/><path class="cls-1" d="M11.49,10.44V31.12h6v-.97c0-3.17-.04-6.33,.02-9.5,.02-1.05,.19-2.15,.53-3.14,.47-1.37,1.75-2.02,3.39-1.98,1.55,.04,2.63,.72,3.05,2.17,.29,.99,.43,2.05,.45,3.08,.06,3.16,.02,6.33,.02,9.5v.88h6.17c.02-.22,.06-.41,.06-.59,0-3.83,.04-7.65-.02-11.48-.02-1.31-.18-2.64-.47-3.92-.56-2.45-2.11-4.03-4.62-4.47-3.27-.58-6.42-.54-8.89,2.51v-2.75h-5.7Z"/><path class="cls-1" d="M.05,31.15H7.19V10.46H.05V31.15Z"/><path class="cls-1" d="M3.64,0C1.61,0-.02,1.65,0,3.69c.02,2.01,1.63,3.59,3.65,3.57,2.01-.01,3.61-1.63,3.61-3.63C7.25,1.64,5.63,0,3.64,0Z"/></g></g></svg>