<?xml version="1.0" encoding="UTF-8"?><svg id="Layer_2" xmlns="http://www.w3.org/2000/svg" viewBox="0 0 38.01 26.93"><defs><style>.cls-1{fill:#f18a21;}.cls-2{fill:none;stroke:#f18a21;stroke-miterlimit:10;stroke-width:1.43px;}</style></defs><g id="Layer_1-2"><g><path class="cls-2" d="M36.37,4.29c-.46-1.82-1.75-2.96-3.64-3.13-2.56-.24-5.14-.46-7.71-.45-6.24,.02-12.48,.18-18.71,.29-1.4,.03-2.78,.34-3.62,1.52-.61,.85-1.07,1.91-1.26,2.94-.99,5.3-.9,10.64-.04,15.95,.47,2.87,1.85,4.14,4.74,4.32,4.22,.27,12.68,.53,12.68,.48,.46,0,.92,.02,1.38,0,3.85-.15,7.7-.26,11.54-.49,3.18-.19,4.44-1.39,4.97-4.53,.69-4.04,.71-8.11,.4-12.17-.12-1.59-.35-3.19-.74-4.73Z"/><path class="cls-1" d="M24.46,13.78c-2.93,1.52-5.8,3.01-8.69,4.51-.55,.28-1.2-.11-1.2-.73V8.5c0-.62,.66-1.01,1.21-.73,2.9,1.51,5.76,3,8.7,4.54,.59,.31,.59,1.16,0,1.47Z"/></g></g></svg>